<?xml version="1.0" encoding="utf-8"?>
<!-- Generator: Adobe Illustrator 26.5.0, SVG Export Plug-In . SVG Version: 6.00 Build 0)  -->
<svg version="1.1" id="Capa_1" xmlns="http://www.w3.org/2000/svg" xmlns:xlink="http://www.w3.org/1999/xlink" x="0px" y="0px"
	 viewBox="0 0 265.49 95.44" style="enable-background:new 0 0 265.49 95.44;" xml:space="preserve">
<style type="text/css">
	.st0{display:none;fill:#8777F2;}
	.st1{fill:#8777F2;}
	.st2{display:none;}
	.st3{display:inline;fill:#8777F2;}
</style>
<path class="st0" d="M132.95-82.5C60.61-82.62,2.61-24.88,2.39,47.46c-0.22,72.31,57.52,130.47,129.82,130.76
	c72.72,0.29,130.89-57.67,130.9-130.42C263.1-24.6,205.38-82.39,132.95-82.5z M103.16-67.06c10.06-2.5,20.24-3.77,30.66-4.1
	c10.23,0.65,20.45,1.73,30.41,4.69c5.05,1.5,6.44,4.18,4.25,9.08c-10.64,23.76-21.15,47.58-31.76,71.35
	c-0.84,1.88-1.41,4.6-4.11,4.43c-2.55-0.16-3.04-2.82-3.9-4.73c-10.4-23.28-20.63-46.63-31.2-69.83
	C94.48-62.8,96.8-65.48,103.16-67.06z M36.26-20.19c9.12-12.77,20.16-23.49,33.43-31.87c1.35-0.86,2.9-1.41,4.16-2.01
	c3.98,0.69,4.57,4.01,5.73,6.58C91.6-21,103.48,5.55,115.47,32.05c4.42,9.78,18.84,14.63,28.53,9.78c3.26-1.63,4.16-4.89,5.48-7.82
	c12.21-27,24.35-54.02,36.56-81.02c3.77-8.33,4.79-8.58,12.45-3.46c11.42,7.62,21.06,17.09,29.42,27.97
	c3.34,4.35,4.04,8.14,1.42,13.31c-18.3,36.13-36.3,72.42-54.47,108.62c-1.04,2.06-1.58,5.29-4.53,5.15
	c-2.86-0.14-3.26-3.34-4.21-5.47c-5.77-12.9-11.98-25.65-16.9-38.87c-3.62-9.72-10.84-8.78-18.53-8.98
	c-7.19-0.19-12.32,1.22-15.21,8.94c-4.95,13.22-10.85,26.09-16.45,39.07c-0.92,2.13-1.25,5.32-4.23,5.38
	c-2.47,0.05-3.14-2.74-4.07-4.62C72.49,63.25,54.31,26.45,36.06-10.32C34.37-13.73,33.82-16.77,36.26-20.19z M132.18,166.3
	C54.75,165.62-1.85,91.35,18.61,17.2c0.7-2.52,0.57-6.55,3.21-6.99c3.67-0.6,3.93,3.82,5.16,6.26
	C47.56,57.55,68.01,98.7,88.59,139.79c1.61,3.21,2.26,8.2,7.06,7.93c4.59-0.26,5.12-5.13,6.63-8.46
	c8.75-19.31,17.35-38.7,26.08-58.02c1.08-2.38,1.45-6.17,4.39-6.33c3.75-0.21,3.84,4.04,4.99,6.56c8.77,19.3,17.33,38.71,26.1,58.02
	c1.49,3.29,2.04,8.22,6.76,8.22c4.62,0,5.43-4.83,7.06-8.08c19.79-39.65,39.47-79.35,59.19-119.04c1.09-2.19,2.08-4.45,3.37-6.52
	c0.82-1.32,1.99-3.17,3.19-3.33c2.33-0.3,2.81,2.17,3.35,3.92c3.28,10.74,4.87,21.78,4.9,32.97
	C251.85,112.46,197,166.87,132.18,166.3z"/>
<path class="st1" d="M259.46,25.15c-13.09-22.71-41.89-29.69-65.11-15.7c-2.47,1.49-4.28,2.39-7.34,0.45
	c-16.58-10.54-33.48-10.53-50.23-0.32c-2.91,1.77-4.93,1.89-7.91,0.05C112.15-0.69,95.23-0.3,78.55,9.73
	c-2.64,1.59-4.3,1.78-6.87,0.09C64.02,4.79,55.52,2.2,46.3,2.21C34.55,2.19,24.18,6.03,15.4,13.75
	C-2.04,29.09-5.06,55.52,8.35,74.06c14.32,19.8,40.45,25.48,61.24,12.88c4.06-2.46,6.73-2.42,10.75-0.09
	c15.66,9.08,31.64,9.33,47.29-0.09c3.75-2.26,6.41-2.15,10.17,0.04c15.64,9.13,31.67,9.37,47.32,0.16
	c4.03-2.37,6.52-2.59,10.61-0.12c18.49,11.15,41.56,8.06,56.69-7.06C266.7,65.51,269.63,42.78,259.46,25.15z M64.38,79.2
	c-5.63,3.34-11.59,5.06-17.69,4.77c-16.08-0.17-29.43-9.32-34.86-23.6c-5.12-13.47-1.39-29.1,9.31-38.93
	c11.1-10.22,27.31-12.81,40.41-6.46c6.23,3.02,6.56,3.43,3.23,9.29c-9.41,16.53-9.53,32.79,0.99,48.82
	C67.58,75.87,67.3,77.47,64.38,79.2z M75.09,68.9c-8.24-7.59-10.37-25.7-4.19-35.79c3.98-6.5,3.55-6.21,8.09,0.33
	C85.03,42.14,82.72,62.41,75.09,68.9z M123.53,74.08c1.14,2.14,1.03,2.7-0.87,4.02c-10.27,7.13-21.08,7.57-32.4,3.05
	c-0.16-0.29-0.37-0.53-0.62-0.73c-5.1-3.89-5.12-3.89-2.7-9.82c0.32-0.77,0.17-1.61,0.5-2.35l0.01-0.04
	c3.24-4.79,4.56-10.16,4.76-15.86c0.57-11.1-2.18-21.32-8.32-30.58c-1.34-2.02-1.25-3.2,0.8-4.79c9.28-7.22,30.12-6.99,38.94,0.44
	c2.15,1.81,0.89,3.09-0.04,4.56c-5.27,8.33-8.21,17.29-8.05,27.26C115.7,58.37,119.4,66.32,123.53,74.08z M134.73,66.94
	c-1.33,2.04-2.22,2.22-3.9,0.25c-7.48-8.84-7.42-29.79,0.1-38.79c1.65-1.98,2.53-1.35,3.66,0.28c4.06,5.81,5.84,12.3,5.77,19.34
	C140.35,54.88,138.51,61.17,134.73,66.94z M180.45,78.84c-12.63,6.98-25.14,7.04-37.65-0.19c-1.59-0.92-3.14-1.67-1.55-4.04
	c11.6-17.23,11.42-34.73,0.99-52.4c-0.26-1.82-0.89-3.71,0.89-5.18c12.17-7.28,24.42-7.2,36.8-0.51c2.62,1.41,3.27,2.79,1.47,5.63
	c-10.89,17.13-10.69,34.4,0.08,51.51C183.02,76.09,183.18,77.33,180.45,78.84z M190.59,69.23c-9-10.7-9.98-28.47-2.72-39.66
	c2.18-3.36,3.45-2.91,5.43,0.09C200.59,40.66,199.53,58.19,190.59,69.23z M231.45,82c-10.11,3.36-19.83,2.53-29.32-2.36
	c-3.36-1.73-4.38-3.15-2.03-6.88c10.55-16.77,9.96-33.72-0.08-50.55c-1.53-2.82,0.45-4.18,2.36-5.48c2.02-1.38,4.53-1.81,6.49-3.33
	c18.01-6.32,38.92,4.29,45.12,22.89C260.33,55.32,250.25,75.75,231.45,82z"/>
<g class="st2">
	<path class="st3" d="M132.62,179.96c-2.1-11.52-4.03-21.95-5.9-32.4c-5.37-30.03-10.71-60.06-16.08-90.08
		c-4.93-27.57-9.93-55.12-14.76-82.7c-0.47-2.69-1.43-3.44-4.08-3.38c-9.51,0.21-19.02,0.31-28.35,2.43
		c-8.26,1.88-14.59,5.96-16.09,15.08c-0.31,1.89-1.03,2.16-2.73,1.37c-11.95-5.5-22.71-12.57-31.22-22.82
		c-2.21-2.66-1.58-3.59,1.32-4.84c23.58-10.21,48.19-16.49,73.64-19.61c4.59-0.56,9.22-0.82,13.81-1.36
		c2.22-0.26,3.65,0.45,5.07,2.23c7.67,9.55,15.58,18.92,23.22,28.5c1.95,2.45,2.88,2.05,4.62-0.12
		c7.68-9.55,15.55-18.94,23.27-28.46c1.3-1.61,2.61-2.33,4.75-2.18c30.43,2.2,59.73,9.02,87.81,21.06c3.08,1.32,3.25,2.26,1.16,4.8
		c-8.48,10.3-19.3,17.28-31.23,22.8c-1.81,0.84-2.5,0.6-2.84-1.59c-1.18-7.49-5.93-11.91-12.98-13.99
		c-10.82-3.19-21.98-3.1-33.11-3.26c-2.36-0.03-2.14,1.74-2.38,3.06c-2.82,15.62-5.58,31.26-8.36,46.9
		c-5.88,33.11-11.74,66.22-17.63,99.33c-3.41,19.2-6.86,38.39-10.3,57.58C133.22,178.54,133.09,178.76,132.62,179.96z"/>
	<path class="st3" d="M132.67-67.74c-42.26-0.49-83.09,6.76-122.05,23.48c-2.89,1.24-4.46,0.92-5.66-2.09
		c-1.29-3.25-2.91-6.37-4.49-9.49c-0.98-1.93-0.42-2.73,1.55-3.49c24.01-9.18,48.64-16.06,74.02-20.2
		c27.41-4.47,54.96-5.87,82.65-3.72c36.02,2.79,70.85,10.86,104.57,23.84c2.37,0.91,2.72,1.91,1.64,4.09
		c-1.94,3.92-2.89,9.34-6.25,11.25c-3.32,1.89-7.67-2.02-11.49-3.5c-31.43-12.12-63.96-18.85-97.61-20.13
		C143.93-67.93,138.3-67.74,132.67-67.74z"/>
</g>
<g class="st2">
	<path class="st3" d="M158.63,43.36c-5.81,0.06-11.62,0.03-17.44,0.03c-2.84,0-2.79,0-2.8,2.9c0,1.03,0.29,1.41,1.34,1.36
		c1.58-0.07,3.16-0.02,4.74-0.02c0.56,0,1.2-0.1,1.2,0.77c0,3.7,0,7.39,0,11.04c-0.61,0.16-0.78-0.2-1.02-0.41
		c-5.48-4.79-10.98-9.55-16.41-14.39c-1.05-0.93-2.08-1.31-3.47-1.29c-5.98,0.07-11.96,0.03-17.94,0.03c-2.92,0-2.87,0.01-2.83,2.9
		c0.02,1,0.28,1.43,1.35,1.37c1.52-0.08,3.05,0.01,4.57-0.05c0.92-0.04,1.29,0.22,1.29,1.22c-0.04,7.11-0.04,14.22,0,21.33
		c0.01,1.1-0.42,1.33-1.39,1.29c-1.41-0.06-2.83,0.07-4.23-0.04c-1.32-0.1-1.74,0.43-1.58,1.66c0.04,0.33,0.05,0.68,0,1.01
		c-0.23,1.39,0.42,1.66,1.7,1.64c5.64-0.07,11.29-0.03,16.93-0.03c3.04,0,3,0,2.89-3.12c-0.03-0.9-0.32-1.17-1.18-1.13
		c-1.41,0.05-2.83-0.07-4.23,0.03c-1.28,0.09-1.8-0.24-1.72-1.65c0.13-2.25,0.03-4.51,0.03-6.77c0-2,0-4.01,0-6.03
		c0.73,0.09,1.01,0.47,1.35,0.76c6.51,5.66,13.02,11.32,19.51,17.01c0.72,0.63,1.43,0.95,2.41,0.93c3.27-0.06,6.55-0.08,9.82,0.01
		c1.2,0.03,1.48-0.34,1.47-1.51c-0.06-7.39-0.03-14.78-0.03-22.18c0-4.41,0-4.41,4.37-4.41c2.8,0,2.74,0,2.82-2.73
		C160.16,43.72,159.85,43.35,158.63,43.36z"/>
	<path class="st3" d="M265.28,71.84c-0.29-0.88-1.52-0.44-2.29-0.37c-3.23,0.3-5.27-1.14-6.83-3.9
		c-4.34-7.71-8.84-15.33-13.23-23.02c-0.48-0.84-0.98-1.21-1.97-1.2c-4.34,0.05-8.69,0.05-13.03,0c-0.92-0.01-1.41,0.3-1.85,1.09
		c-2.09,3.74-4.21,7.47-6.39,11.15c-2.58,4.37-4.83,8.93-7.73,13.11c-1.31,1.89-3.13,2.88-5.49,2.74c-0.62-0.04-1.24,0.03-1.86-0.01
		c-0.8-0.04-1.14,0.28-1.07,1.09c0.04,0.5,0.07,1.02,0,1.52c-0.2,1.34,0.32,1.7,1.66,1.68c5.98-0.08,11.96-0.04,17.94-0.04
		c2.37,0,2.29,0,2.39-2.29c0.07-1.48-0.27-2.27-1.92-1.99c-0.38,0.06-0.79,0.01-1.18,0c-1.73-0.06-2.3-0.96-1.56-2.56
		c0.55-1.17,1.26-2.26,1.84-3.43c0.31-0.64,0.8-0.68,1.39-0.68c4.68,0.01,9.36,0,14.05,0.01c0.44,0,0.93-0.11,1.23,0.36
		c0.78,1.24,1.68,2.43,2.28,3.75c0.67,1.45-0.14,2.51-1.8,2.57c-1.3,0.05-2.61,0.14-3.89-0.01c-1.56-0.18-2.04,0.44-1.8,1.88
		c0.05,0.27,0.05,0.57,0,0.84c-0.23,1.29,0.3,1.6,1.57,1.58c4.68-0.08,9.36-0.03,14.05-0.03c4.74,0,9.48,0.01,14.22-0.01
		c0.45,0,1.23,0.31,1.31-0.32C265.47,74.2,265.63,72.91,265.28,71.84z M225.65,60.35c1.83-3.22,3.61-6.32,5.55-9.74
		c1.98,3.38,3.8,6.47,5.73,9.74C233.12,60.35,229.5,60.35,225.65,60.35z"/>
	<path class="st3" d="M102.46,7.58c-9.03-8.12-25.81-7.59-34.41,1.07c-6.06,6.11-6.02,14.91,0.1,20.97
		c4.9,4.86,11.01,6.57,17.34,6.78c5.78-0.1,10.83-1.41,15.35-4.51C109.86,25.7,110.58,14.9,102.46,7.58z M90.18,29.2
		c-2.66,2.57-6.29,2.49-8.89-0.14c-4.83-4.9-4.87-14.9-0.07-19.82c2.71-2.78,6.4-2.84,9.13-0.08c2.74,2.78,3.6,6.28,3.65,10.14
		C93.9,23,92.99,26.47,90.18,29.2z"/>
	<path class="st3" d="M213.33,29.64c8.56,9.01,26.42,8.98,35.4-0.04c6.14-6.16,6.11-15.01-0.13-21.1
		c-4.87-4.75-10.92-6.52-17.44-6.72c-5.83,0.15-11.15,1.51-15.82,4.98C207.3,12.74,206.44,22.39,213.33,29.64z M225.36,10.43
		c3.08-4.38,8.09-4.41,11.23-0.06c3.41,4.73,3.43,12.66,0.03,17.4c-3.16,4.4-8.06,4.43-11.21,0.04c-1.91-2.66-2.59-5.71-2.6-7.49
		C222.87,15.82,223.58,12.96,225.36,10.43z"/>
	<path class="st3" d="M42.89,45.13c-2.66-1.24-5.5-1.64-8.4-1.66c-5.25-0.04-10.49-0.01-15.74-0.01c0-0.03,0-0.05,0-0.08
		c-5.3,0-10.61,0-15.91,0c-2.89,0-2.82,0-2.84,2.87C0,47.43,0.44,47.69,1.49,47.65c1.8-0.07,3.61,0.02,5.42-0.04
		C7.89,47.57,8.3,47.8,8.3,48.9c-0.05,7.11-0.04,14.22,0,21.33c0.01,0.99-0.33,1.27-1.27,1.24c-1.46-0.06-2.93-0.03-4.4-0.01
		c-2.91,0.04-2.5-0.48-2.62,2.6c-0.05,1.33,0.33,1.69,1.68,1.68c8.75-0.07,17.49-0.03,26.24-0.04c2.9,0,2.85,0,2.84-2.83
		c0-1.06-0.25-1.52-1.42-1.46c-1.86,0.09-3.72-0.03-5.58,0.04c-1.01,0.04-1.41-0.23-1.37-1.31c0.08-1.92,0.1-3.84-0.01-5.75
		c-0.07-1.25,0.43-1.5,1.56-1.49c3.55,0.06,7.11,0.04,10.66,0.01c2.61-0.02,5.17-0.34,7.62-1.34c3.66-1.5,5.34-4.33,5.55-8.15
		C47.99,49.59,46.42,46.78,42.89,45.13z M30.73,57.48c-2.36,1.4-4.97,1.29-7.56,1.26c-0.75-0.01-0.75-0.51-0.75-1.05
		c0-1.52,0-3.05,0-4.57c0-1.24,0.12-2.5-0.03-3.72c-0.19-1.59,0.46-1.9,1.89-1.81c1.91,0.13,3.84,0.02,5.68,0.69
		c2.11,0.77,3.3,2.29,3.51,4.54C33.67,55.02,32.5,56.43,30.73,57.48z"/>
	<path class="st3" d="M95.8,64.95c0-3.21-0.01-3.11-3.17-3.25c-1.63-0.07-2.05,0.46-2.18,2.02c-0.37,4.46-3.43,7.54-7.56,7.69
		c-3.16,0.11-6.32-0.01-9.48,0.05c-1.04,0.02-1.2-0.45-1.19-1.33c0.04-2.77,0.06-5.53-0.01-8.3c-0.02-1.08,0.25-1.5,1.41-1.46
		c2.25,0.09,4.51,0.05,6.77,0.02c3.07-0.04,2.53,0.45,2.67-2.72c0.06-1.32-0.39-1.63-1.63-1.59c-2.65,0.09-5.3,0.03-7.96,0.03
		c-0.61,0-1.27,0.13-1.25-0.88c0.04-2.26,0.01-4.52,0-6.77c0-0.56,0.24-0.84,0.8-0.83c3.72,0.1,7.47-0.38,11.15,0.27
		c2.98,0.53,5.04,2.34,6.03,5.31c0.33,0.98-0.18,2.41,0.88,2.87c0.91,0.39,2.11,0.05,3.18,0.14c1.15,0.1,1.58-0.25,1.55-1.48
		c-0.08-3.21-0.11-6.44,0.01-9.65c0.05-1.46-0.43-1.75-1.8-1.74c-13.83,0.05-27.66,0.03-41.48,0.03c-2.85,0-2.81,0-2.8,2.9
		c0.01,1.01,0.26,1.4,1.34,1.35c1.92-0.08,3.84,0.02,5.76-0.04c0.94-0.03,1.28,0.27,1.27,1.25c-0.04,7.11-0.04,14.22,0,21.33
		c0,0.95-0.27,1.29-1.24,1.26c-1.92-0.06-3.84,0.03-5.76-0.04c-1.01-0.04-1.49,0.23-1.33,1.31c0.06,0.44,0.08,0.91,0,1.35
		c-0.26,1.42,0.4,1.65,1.67,1.64c7.11-0.06,14.22-0.03,21.33-0.03c7.11,0,14.22-0.03,21.33,0.02c1.24,0.01,1.78-0.18,1.72-1.62
		C95.71,71.05,95.8,68,95.8,64.95z"/>
	<path class="st3" d="M4.97,7.25c1.58-0.06,3.16,0.06,4.74-0.05c1.13-0.07,1.69,0.35,2.21,1.33c4.47,8.35,9.04,16.64,13.49,25
		c0.63,1.18,1.33,1.55,2.62,1.53c4.79-0.08,9.59-0.06,14.39,0c1.03,0.01,1.59-0.27,2.06-1.24c3.68-7.42,7.65-14.71,11.07-22.25
		c1.55-3.43,3.39-4.85,7.17-4.41c3.27,0.38,3.27,0.08,3.1-3.31c-0.04-0.8-0.27-1.06-1.08-1.05c-6.43,0.02-12.86,0.03-19.29-0.01
		c-0.98-0.01-1.23,0.35-1.25,1.28c-0.08,3.17-0.11,3.17,3.04,3.17c0.45,0,0.9,0,1.35,0c1.88,0,1.89,0.01,1.01,1.76
		c-3.1,6.14-6.22,12.27-9.34,18.4c-0.18,0.36-0.23,0.88-0.86,0.95c-3.73-6.93-7.46-13.87-11.36-21.12c2.65,0,5.01-0.03,7.37,0.02
		c0.89,0.02,1.24-0.28,1.15-1.16c-0.05-0.45-0.07-0.91,0-1.35c0.24-1.54-0.33-1.99-1.92-1.97C25.4,2.85,16.15,2.81,6.89,2.81
		c-3.2,0-3.17,0-3.08,3.28C3.84,6.96,4.07,7.29,4.97,7.25z"/>
	<path class="st3" d="M149.9,7.25c1.47-0.05,2.94,0.09,4.4-0.04c1.33-0.12,1.98,0.39,2.6,1.55c4.49,8.4,9.06,16.75,13.59,25.13
		c0.37,0.68,0.7,1.17,1.62,1.17c5.19-0.04,10.38-0.03,15.57-0.01c0.79,0,1.2-0.28,1.55-0.99c3.7-7.41,7.66-14.7,11.06-22.25
		c1.61-3.57,3.49-5.2,7.49-4.65c2.91,0.4,2.89,0.08,2.97-2.78c0.04-1.25-0.29-1.62-1.58-1.6c-5.7,0.08-11.39,0.03-17.09,0.04
		c-3.04,0-3,0-2.97,3.09c0.01,1.01,0.28,1.41,1.34,1.36c1.54-0.08,3.09-0.02,4.89-0.02c-3.69,7.26-7.23,14.24-10.9,21.46
		c-3.89-7.24-7.62-14.17-11.54-21.46c2.13,0,3.92,0,5.7,0c2.77,0,2.68,0,2.79-2.72c0.06-1.46-0.43-1.75-1.8-1.74
		c-9.25,0.06-18.5,0.03-27.75,0.03c-3.36,0-3.32,0-3.18,3.36C148.7,7.12,149.08,7.28,149.9,7.25z"/>
	<path class="st3" d="M193.54,47.64c4.63-0.32,9.26,1.28,10.18,6.27c0.38,2.05,1.07,2.66,2.95,2.33c0.33-0.06,0.68-0.04,1.01,0
		c1.07,0.1,1.48-0.26,1.45-1.43c-0.08-3.27-0.08-6.55,0-9.82c0.03-1.25-0.3-1.64-1.59-1.63c-7.22,0.06-14.45,0.03-21.67,0.03
		c-7.34,0-14.67,0.02-22.01-0.02c-1.1-0.01-1.46,0.29-1.44,1.41c0.07,3.39,0.06,6.77,0,10.16c-0.02,1.08,0.36,1.39,1.37,1.29
		c0.78-0.08,1.58-0.04,2.37,0c0.74,0.04,1.15-0.15,1.2-0.99c0.34-4.99,4.39-7.85,10.15-7.63c1.1,0.04,1.13,0.6,1.13,1.41
		c-0.01,7-0.03,14,0.01,21c0.01,1.06-0.23,1.53-1.4,1.46c-1.46-0.1-2.93,0-4.4-0.03c-0.84-0.02-1.28,0.25-1.18,1.16
		c0.05,0.45,0.06,0.91,0,1.35c-0.2,1.37,0.28,1.8,1.72,1.79c7.84-0.08,15.69-0.04,23.54-0.04c3.14,0,3.11,0,2.96-3.23
		c-0.04-0.83-0.3-1.07-1.09-1.05c-1.64,0.04-3.27-0.01-4.91,0.02c-0.79,0.02-1.1-0.25-1.09-1.07c0.02-7.22,0.01-14.45,0.01-21.67
		C192.8,48.17,192.8,47.69,193.54,47.64z"/>
	<path class="st3" d="M112.85,35.07c6.94-0.07,13.88-0.03,20.83-0.03c0,0,0,0,0-0.01c6.94,0,13.88-0.03,20.83,0.03
		c1.16,0.01,1.55-0.26,1.53-1.47c-0.08-3.72,0-7.45-0.04-11.17c-0.01-0.7,0.51-2.02-0.97-1.74c-1.16,0.22-2.99-1.21-3.39,1.38
		c-0.66,4.32-3.19,7.12-7.48,8.19c-3.28,0.82-6.63,0.32-9.95,0.44c-0.86,0.03-0.79-0.62-0.79-1.18c0-7.05,0.01-14.11-0.02-21.16
		c0-0.94,0.38-1.14,1.21-1.11c1.47,0.05,2.93,0.01,4.4,0.01c2.64,0,2.56,0,2.67-2.7c0.06-1.44-0.41-1.77-1.79-1.76
		c-8.52,0.06-17.04,0.03-25.57,0.03c-3.37,0-3.33,0-3.23,3.3c0.03,0.88,0.27,1.17,1.16,1.15c1.92-0.06,3.84,0.03,5.76-0.04
		c0.95-0.03,1.27,0.24,1.27,1.21c-0.03,7-0.03,14,0,20.99c0,0.94-0.27,1.3-1.25,1.27c-1.86-0.07-3.73,0.04-5.59-0.04
		c-1.04-0.04-1.46,0.28-1.33,1.33c0.06,0.44,0.07,0.91,0,1.35C110.84,34.8,111.48,35.08,112.85,35.07z"/>
</g>
</svg>
